<svg xmlns="http://www.w3.org/2000/svg" width="18.396" height="14" viewBox="0 0 18.396 14">
  <g id="icon-mail" transform="translate(0 -57.75)">
    <g id="Group_73" data-name="Group 73" transform="translate(0 57.75)">
      <path id="Path_78" data-name="Path 78" d="M16.151,57.75H2.25A2.252,2.252,0,0,0,0,60v9.5a2.252,2.252,0,0,0,2.25,2.25h13.9A2.252,2.252,0,0,0,18.4,69.5V60A2.249,2.249,0,0,0,16.151,57.75ZM17.372,69.5a1.223,1.223,0,0,1-1.222,1.222H2.25A1.223,1.223,0,0,1,1.028,69.5V60A1.223,1.223,0,0,1,2.25,58.782h13.9A1.223,1.223,0,0,1,17.369,60v9.5Z" transform="translate(0 -57.75)" fill="#fff"/>
      <path id="Path_79" data-name="Path 79" d="M65.232,113.837l4.5-4.035a.515.515,0,1,0-.689-.765l-6.2,5.569-1.21-1.081s-.008-.008-.008-.011a.761.761,0,0,0-.084-.072l-4.926-4.408a.515.515,0,1,0-.685.769l4.552,4.069-4.533,4.244a.516.516,0,0,0-.023.727.526.526,0,0,0,.377.164.515.515,0,0,0,.35-.137l4.6-4.305L62.5,115.68a.513.513,0,0,0,.685,0l1.283-1.15,4.575,4.347a.515.515,0,0,0,.727-.019.516.516,0,0,0-.019-.727Z" transform="translate(-53.63 -106.955)" fill="#fff"/>
    </g>
  </g>
</svg>
