<svg id="icon-cart" xmlns="http://www.w3.org/2000/svg" width="37.69" height="32.077" viewBox="0 0 37.69 32.077">
  <path id="Path_14" data-name="Path 14" d="M1.106,18.408H7.892A3.181,3.181,0,0,1,10.83,20.6l1.833,6.391a2.49,2.49,0,0,1,.66-.091H35.249a2.469,2.469,0,0,1,1.818.782,2.391,2.391,0,0,1,.612,1.858L36.656,39.75a2.741,2.741,0,0,1-2.719,2.427H16.92a3.151,3.151,0,0,1-2.926-2.206l-2.132-7.765L8.7,21.19a.973.973,0,0,0-.811-.6H1.106a1.089,1.089,0,1,1,0-2.178ZM16.128,39.4a.945.945,0,0,0,.791.6H33.937a.559.559,0,0,0,.519-.463l1.023-10.21a.227.227,0,0,0-.05-.182.236.236,0,0,0-.179-.067H13.3c0,.008,0,.017.006.027Z" transform="translate(0 -18.408)" fill="#404856"/>
  <path id="Path_15" data-name="Path 15" d="M27.54,190.664a3.511,3.511,0,1,1-3.511,3.511A3.515,3.515,0,0,1,27.54,190.664Zm0,4.765a1.254,1.254,0,1,0-1.254-1.254A1.255,1.255,0,0,0,27.54,195.429Z" transform="translate(3.022 -165.61)" fill="#404856"/>
  <path id="Path_16" data-name="Path 16" d="M101.511,190.664A3.511,3.511,0,1,1,98,194.175,3.515,3.515,0,0,1,101.511,190.664Zm0,4.765a1.254,1.254,0,1,0-1.254-1.254A1.255,1.255,0,0,0,101.511,195.429Z" transform="translate(-81.708 -165.61)" fill="#404856"/>
</svg>
