<svg xmlns="http://www.w3.org/2000/svg" width="25.8" height="30.864" viewBox="0 0 25.8 30.864">
  <g id="icon-user" transform="translate(0.15 0.15)">
    <path id="Path_84" data-name="Path 84" d="M94.393,14.723A7.123,7.123,0,0,0,99.6,12.566a7.124,7.124,0,0,0,2.157-5.2,7.124,7.124,0,0,0-2.157-5.2,7.36,7.36,0,0,0-10.41,0,7.123,7.123,0,0,0-2.157,5.2,7.124,7.124,0,0,0,2.157,5.205,7.126,7.126,0,0,0,5.2,2.157Zm-3.938-11.3a5.569,5.569,0,0,1,7.877,0,5.322,5.322,0,0,1,1.632,3.938A5.322,5.322,0,0,1,98.332,11.3a5.568,5.568,0,0,1-7.877,0,5.321,5.321,0,0,1-1.632-3.939,5.322,5.322,0,0,1,1.632-3.938Zm0,0" transform="translate(-81.836 0)" fill="#404856" stroke="#404856" stroke-width="0.3"/>
    <path id="Path_85" data-name="Path 85" d="M25.438,256.055a18.184,18.184,0,0,0-.248-1.931,15.218,15.218,0,0,0-.475-1.942,9.591,9.591,0,0,0-.8-1.811,6.826,6.826,0,0,0-1.2-1.569,5.307,5.307,0,0,0-1.729-1.086,5.976,5.976,0,0,0-2.207-.4,2.24,2.24,0,0,0-1.2.507c-.359.234-.778.5-1.246.8a7.143,7.143,0,0,1-1.613.711,6.262,6.262,0,0,1-3.945,0,7.122,7.122,0,0,1-1.612-.71c-.464-.3-.884-.567-1.248-.8a2.238,2.238,0,0,0-1.2-.507,5.968,5.968,0,0,0-2.207.4A5.3,5.3,0,0,0,2.785,248.8a6.828,6.828,0,0,0-1.2,1.568,9.609,9.609,0,0,0-.8,1.811,15.251,15.251,0,0,0-.475,1.941,18.06,18.06,0,0,0-.248,1.932c-.041.584-.061,1.191-.061,1.8a5.075,5.075,0,0,0,1.507,3.84,5.426,5.426,0,0,0,3.884,1.417H20.108a5.426,5.426,0,0,0,3.884-1.417,5.073,5.073,0,0,0,1.508-3.84c0-.616-.021-1.223-.062-1.805ZM22.757,260.4a3.653,3.653,0,0,1-2.649.923H5.391a3.653,3.653,0,0,1-2.649-.923,3.314,3.314,0,0,1-.951-2.542c0-.573.019-1.138.057-1.681a16.29,16.29,0,0,1,.224-1.739,13.452,13.452,0,0,1,.418-1.712,7.824,7.824,0,0,1,.65-1.473,5.062,5.062,0,0,1,.884-1.159,3.521,3.521,0,0,1,1.15-.715,4.122,4.122,0,0,1,1.411-.272c.063.033.174.1.355.215.368.24.793.514,1.262.813a8.875,8.875,0,0,0,2.024.9,8.052,8.052,0,0,0,5.047,0,8.885,8.885,0,0,0,2.025-.905c.48-.307.893-.573,1.261-.813.181-.118.293-.182.355-.215a4.124,4.124,0,0,1,1.411.272,3.525,3.525,0,0,1,1.15.715,5.048,5.048,0,0,1,.884,1.159,7.8,7.8,0,0,1,.65,1.472,13.421,13.421,0,0,1,.418,1.712,16.425,16.425,0,0,1,.224,1.74h0c.038.541.057,1.106.057,1.68a3.314,3.314,0,0,1-.951,2.542Zm0,0" transform="translate(0 -232.552)" fill="#404856" stroke="#404856" stroke-width="0.3"/>
  </g>
</svg>
