<svg xmlns="http://www.w3.org/2000/svg" width="19.333" height="19.333" viewBox="0 0 19.333 19.333" >
  <g id="icon-phone" transform="translate(-0.344 1)">
    <g id="Group_72" data-name="Group 72" transform="translate(0.344 -1)">
      <path id="Path_75" data-name="Path 75" d="M14.74,37.634a1.794,1.794,0,0,0-1.3-.6,1.855,1.855,0,0,0-1.316.592l-1.216,1.211c-.1-.054-.2-.1-.3-.154-.139-.069-.269-.135-.381-.2A13.21,13.21,0,0,1,7.063,35.6a7.787,7.787,0,0,1-1.039-1.637c.316-.288.608-.588.893-.876.108-.108.215-.219.323-.327a1.762,1.762,0,0,0,0-2.66L6.19,29.051c-.119-.119-.242-.242-.358-.365-.231-.238-.473-.484-.723-.715a1.822,1.822,0,0,0-1.289-.565,1.886,1.886,0,0,0-1.308.565l-.008.008L1.2,29.3A2.811,2.811,0,0,0,.36,31.084a6.731,6.731,0,0,0,.493,2.852,16.545,16.545,0,0,0,2.944,4.9,18.1,18.1,0,0,0,6.03,4.716,9.4,9.4,0,0,0,3.386,1c.081,0,.165.008.242.008a2.9,2.9,0,0,0,2.22-.953c0-.008.012-.012.015-.019a8.742,8.742,0,0,1,.673-.7c.165-.158.335-.323.5-.5a1.916,1.916,0,0,0,.581-1.33,1.846,1.846,0,0,0-.593-1.318Zm1.378,4.047s0,0,0,0c-.15.161-.3.307-.469.469a10.111,10.111,0,0,0-.743.769,1.856,1.856,0,0,1-1.447.611c-.058,0-.119,0-.177,0a8.352,8.352,0,0,1-3-.9A17.09,17.09,0,0,1,4.6,38.183a15.6,15.6,0,0,1-2.77-4.608A5.483,5.483,0,0,1,1.4,31.169a1.764,1.764,0,0,1,.531-1.142l1.312-1.311a.875.875,0,0,1,.585-.273.823.823,0,0,1,.562.269l.012.012c.235.219.458.446.693.688.119.123.242.246.366.373l1.05,1.049a.733.733,0,0,1,0,1.192c-.112.111-.219.223-.331.331-.323.331-.631.638-.966.938-.008.008-.015.012-.019.019a.783.783,0,0,0-.2.872L5,34.221a8.422,8.422,0,0,0,1.243,2.026l0,0a14.117,14.117,0,0,0,3.417,3.106,5.257,5.257,0,0,0,.473.258c.139.069.269.135.381.2.015.008.031.019.046.027a.835.835,0,0,0,.381.1.823.823,0,0,0,.585-.265L12.85,38.36a.871.871,0,0,1,.581-.288.784.784,0,0,1,.554.281l.008.008,2.12,2.118A.759.759,0,0,1,16.117,41.681Z" transform="translate(-0.344 -25.23)" fill="#fff"/>
      <path id="Path_76" data-name="Path 76" d="M245.434,87.107a5.677,5.677,0,0,1,4.623,4.623.592.592,0,0,0,.587.494.786.786,0,0,0,.1-.009.6.6,0,0,0,.49-.688,6.865,6.865,0,0,0-5.594-5.594.6.6,0,0,0-.688.485A.589.589,0,0,0,245.434,87.107Z" transform="translate(-236.008 -81.826)" fill="#949494"/>
      <path id="Path_77" data-name="Path 77" d="M258.678,9.22A11.3,11.3,0,0,0,249.467.009a.595.595,0,1,0-.194,1.173A10.1,10.1,0,0,1,257.5,9.414a.592.592,0,0,0,.587.494.788.788,0,0,0,.1-.009A.584.584,0,0,0,258.678,9.22Z" transform="translate(-239.354 0)" fill="#949494"/>
    </g>
  </g>
</svg>
