<svg xmlns="http://www.w3.org/2000/svg" width="25.737" height="19.76" viewBox="0 0 25.737 19.76">
  <g id="icon-cargo" transform="translate(0 -59.453)">
    <g id="Group_75" data-name="Group 75" transform="translate(0 59.453)">
      <g id="Group_74" data-name="Group 74" transform="translate(0 0)">
        <path id="Path_80" data-name="Path 80" d="M25.61,71.591,21.8,67.245a.513.513,0,0,0-.386-.175H18.106V63.994a.513.513,0,0,0-.513-.513H10.227A5.178,5.178,0,1,0,.96,67.631v7.625H.513a.513.513,0,1,0,0,1.025H.96v.6a.513.513,0,0,0,.513.513h1.01a2.331,2.331,0,0,0,4.549,0H19.058a2.331,2.331,0,0,0,4.549,0h1.617a.513.513,0,0,0,.513-.513V71.928A.513.513,0,0,0,25.61,71.591ZM10.355,64.507h6.726v7.576H1.985V68.705a5.176,5.176,0,0,0,8.371-4.074C10.356,64.59,10.356,64.548,10.355,64.507Zm-9.329.124a4.153,4.153,0,1,1,4.153,4.153A4.157,4.157,0,0,1,1.025,64.631ZM4.758,78.187a1.307,1.307,0,1,1,1.307-1.307A1.308,1.308,0,0,1,4.758,78.187Zm12.323-1.819H7.032a2.331,2.331,0,0,0-4.549,0h-.5V73.109h15.1v3.259ZM21.9,68.907l2.227,2.542H21.9Zm-.563,9.28a1.307,1.307,0,1,1,1.307-1.307A1.308,1.308,0,0,1,21.333,78.187Zm3.378-1.819h-1.1a2.331,2.331,0,0,0-4.549,0h-.952V68.1h2.765v3.867a.513.513,0,0,0,.513.513h3.328v3.893Z" transform="translate(0 -59.453)" fill="#949494"/>
      </g>
    </g>
    <g id="Group_81" data-name="Group 81" transform="translate(4.665 61.042)">
      <g id="Group_80" data-name="Group 80">
        <path id="Path_83" data-name="Path 83" d="M94.816,95.425l-.978-.978V91.584a.513.513,0,0,0-1.025,0V94.66a.513.513,0,0,0,.15.363l1.128,1.128a.513.513,0,1,0,.725-.725Z" transform="translate(-92.813 -91.071)" fill="#949494"/>
      </g>
    </g>
  </g>
</svg>
